<?xml version="1.0" encoding="UTF-8"?>
<!--
  Melly Pet desktop app icon source — 1024x1024.

  Original MellyTrade mascot, extracted verbatim from the in-product figure in
  frontend/src/components/branding/MellyPetMascot.tsx (MellyFigure, viewBox 0 0 80 92).
  Centered on the app's branded dark rounded square (theme #0a0d11 + amber accent)
  so the mascot stays visible as a Windows EXE / taskbar / window icon.

  This is a design-only asset. No third-party brand assets. No trading controls.
  Regenerate icon outputs with:  npx tauri icon frontend/src-tauri/melly-pet-icon.svg.png
-->
<svg width="1024" height="1024" viewBox="0 0 1024 1024" fill="none" xmlns="http://www.w3.org/2000/svg">
  <!-- Branded rounded-square backdrop (transparent corners) -->
  <rect x="32" y="32" width="960" height="960" rx="180" fill="#0a0d11" />
  <rect x="32" y="32" width="960" height="960" rx="180" stroke="rgba(214,164,76,0.28)" stroke-width="6" />
  <ellipse cx="512" cy="500" rx="360" ry="400" fill="rgba(214,164,76,0.05)" />

  <!-- Melly Pet figure (source viewBox 0 0 80 92), centered & scaled into the square -->
  <svg x="232" y="172" width="560" height="644" viewBox="0 0 80 92" fill="none">
    <ellipse cx="40" cy="46" rx="28" ry="32" fill="rgba(214,164,76,0.04)" />

    <rect x="18" y="54" width="44" height="34" rx="6" fill="#0d1016" />
    <rect x="18" y="54" width="44" height="3" rx="2" fill="#1a2030" />

    <path d="M40 57 L33 54 L33 74 L40 80 L47 74 L47 54 Z" fill="#dde3eb" opacity="0.88" />
    <path d="M40 57 L38 54 L38 72 L40 78 L42 72 L42 54 Z" fill="#c5ccd8" opacity="0.45" />

    <path d="M18 58 L33 54 L35 68 L28 84 L18 80 Z" fill="#111520" />
    <path d="M62 58 L47 54 L45 68 L52 84 L62 80 Z" fill="#111520" />

    <path d="M38.5 59 L41.5 59 L40.5 75 L40 77 L39.5 75 Z" fill="#c49a3c" />
    <polygon points="40,57 37,60.5 40,62.5 43,60.5" fill="#d6a44c" />

    <rect x="13" y="6" width="54" height="50" rx="11" fill="#141820" />
    <rect x="13" y="6" width="54" height="50" rx="11" stroke="rgba(214,164,76,0.22)" stroke-width="1" />

    <rect x="5" y="22" width="8" height="16" rx="3" fill="#1a1f2a" />
    <rect x="67" y="22" width="8" height="16" rx="3" fill="#1a1f2a" />
    <circle cx="9" cy="30" r="1.5" fill="rgba(214,164,76,0.5)" />
    <circle cx="71" cy="30" r="1.5" fill="rgba(214,164,76,0.5)" />

    <rect x="19" y="21" width="17" height="12" rx="4" fill="rgba(214,164,76,0.10)" stroke="rgba(214,164,76,0.30)" stroke-width="1" />
    <circle cx="27.5" cy="27" r="4" fill="#d6a44c" />
    <circle cx="27.5" cy="27" r="2.2" fill="#07090c" />
    <circle cx="26.5" cy="25.8" r="0.9" fill="rgba(255,255,255,0.75)" />

    <rect x="44" y="21" width="17" height="12" rx="4" fill="rgba(214,164,76,0.10)" stroke="rgba(214,164,76,0.30)" stroke-width="1" />
    <circle cx="52.5" cy="27" r="4" fill="#d6a44c" />
    <circle cx="52.5" cy="27" r="2.2" fill="#07090c" />
    <circle cx="51.5" cy="25.8" r="0.9" fill="rgba(255,255,255,0.75)" />

    <path d="M30 40 Q40 44 50 40" stroke="rgba(214,164,76,0.55)" stroke-width="1.5" stroke-linecap="round" />

    <rect x="31" y="52" width="18" height="4" rx="2" fill="#1c2230" />
  </svg>
</svg>
